<svg xmlns="http://www.w3.org/2000/svg" width="17" height="21.001" viewBox="0 0 17 21.001">
  <path id="合体_5" data-name="合体 5" d="M-1200.952,213h-2.29a3.808,3.808,0,0,1-3.747-3.573L-1208,196h15l-1.012,13.427a3.808,3.808,0,0,1-3.747,3.573Zm-.048-14.5v12a.5.5,0,0,0,.5.5.5.5,0,0,0,.5-.5v-12a.5.5,0,0,0-.5-.5A.5.5,0,0,0-1201,198.5Zm4.029-.023-.678,11.976a.5.5,0,0,0,.127.361.494.494,0,0,0,.344.162h.024a.507.507,0,0,0,.5-.476l.678-11.976a.5.5,0,0,0-.126-.36.5.5,0,0,0-.346-.163h-.023A.5.5,0,0,0-1196.97,198.477Zm-7.582-.474a.491.491,0,0,0-.345.163.49.49,0,0,0-.126.36l.678,11.975a.5.5,0,0,0,.5.476h.025a.491.491,0,0,0,.345-.163.491.491,0,0,0,.126-.36l-.678-11.975a.5.5,0,0,0-.5-.476Zm12.551-3h-17v-1h.185c.8,0,3.5-.013,4.815-.166,1.525-.176,1.385-1.819,1.384-1.836h4.233a2.081,2.081,0,0,0,.346,1.282,1.445,1.445,0,0,0,1.037.554c1.312.153,4.018.166,4.815.166h.185v1h0Zm-10-1.5a.5.5,0,0,0,.5.5h2a.5.5,0,0,0,.5-.5.5.5,0,0,0-.5-.5h-2A.5.5,0,0,0-1202,193.5Z" transform="translate(1209 -192)" fill="#ff6b71"/>
</svg>
