<svg xmlns="http://www.w3.org/2000/svg" width="17.307" height="18" viewBox="0 0 17.307 18">
  <g id="パス_18" data-name="パス 18" transform="translate(1209 -192)" fill="none">
    <path d="M-1193.872,209.626l-2.986-2.987a8.1,8.1,0,0,1-4.117,1.115,7.951,7.951,0,0,1-8.025-7.877,7.951,7.951,0,0,1,8.025-7.876,7.952,7.952,0,0,1,8.024,7.876,7.762,7.762,0,0,1-1.933,5.128l2.817,2.817a1.276,1.276,0,0,1,0,1.8,1.273,1.273,0,0,1-.9.374A1.273,1.273,0,0,1-1193.872,209.626Z" stroke="none"/>
    <path d="M -1200.97509765625 205.7535095214844 C -1199.877807617188 205.7535095214844 -1198.8046875 205.4635162353516 -1197.871704101563 204.9149017333984 L -1197.029174804688 204.4195098876953 L -1196.38916015625 203.6875762939453 C -1195.461547851563 202.6266479492188 -1194.95068359375 201.2730255126953 -1194.95068359375 199.8760375976563 C -1194.95068359375 196.6358337402344 -1197.653198242188 193.9997253417969 -1200.97509765625 193.9997253417969 C -1204.297119140625 193.9997253417969 -1206.999755859375 196.6358337402344 -1206.999755859375 199.8760375976563 C -1206.999755859375 203.1168975830078 -1204.297119140625 205.7535095214844 -1200.97509765625 205.7535095214844 M -1192.969116210938 209.9996948242188 C -1193.2958984375 209.9996948242188 -1193.622680664063 209.8750915527344 -1193.871948242188 209.6258239746094 L -1196.85791015625 206.6389465332031 C -1198.061645507813 207.3467407226563 -1199.469970703125 207.7535095214844 -1200.97509765625 207.7535095214844 C -1205.407836914063 207.7535095214844 -1208.999755859375 204.2271423339844 -1208.999755859375 199.8760375976563 C -1208.999755859375 195.5260925292969 -1205.407836914063 191.9997253417969 -1200.97509765625 191.9997253417969 C -1196.543701171875 191.9997253417969 -1192.95068359375 195.5260925292969 -1192.95068359375 199.8760375976563 C -1192.95068359375 201.8346252441406 -1193.6787109375 203.6260681152344 -1194.883544921875 205.0040283203125 L -1192.066284179688 207.8212890625 C -1191.567749023438 208.31982421875 -1191.567749023438 209.1273193359375 -1192.066284179688 209.6258239746094 C -1192.315551757813 209.8750915527344 -1192.642211914063 209.9996948242188 -1192.969116210938 209.9996948242188 Z" stroke="none" fill="#303030"/>
  </g>
</svg>
